<svg width="26" height="37" viewBox="0 0 26 37" fill="none" xmlns="http://www.w3.org/2000/svg">
<path fill-rule="evenodd" clip-rule="evenodd" d="M23.8075 31.965L6 26.6454V1L23.6485 6.31963C24.4435 6.55782 25 7.27239 25 8.14577V31.0916C25 31.7268 24.364 32.1238 23.8075 31.965Z" fill="#00B8F0"/>
<path fill-rule="evenodd" clip-rule="evenodd" d="M23.8075 31.965L6 26.6454V1L23.6485 6.31963C24.4435 6.55782 25 7.27239 25 8.14577V31.0916C25 31.7268 24.364 32.1238 23.8075 31.965Z" stroke="#7259C0" stroke-linecap="round" stroke-linejoin="round"/>
<path fill-rule="evenodd" clip-rule="evenodd" d="M9 2.19822L5 1V26.8018L9 28V2.19822Z" fill="#656769" stroke="#7259C0" stroke-linecap="round" stroke-linejoin="round"/>
<path fill-rule="evenodd" clip-rule="evenodd" d="M6 1L1 4.4186V15L6 10.686V1Z" fill="#656769" stroke="#7259C0" stroke-linecap="round" stroke-linejoin="round"/>
<path opacity="0.15" fill-rule="evenodd" clip-rule="evenodd" d="M12 37C18.0751 37 23 36.3284 23 35.5C23 34.6716 18.0751 34 12 34C5.92487 34 1 34.6716 1 35.5C1 36.3284 5.92487 37 12 37Z" fill="#45413C"/>
<path fill-rule="evenodd" clip-rule="evenodd" d="M19 34L23 31.2966V8L19 10.4648V34Z" fill="#FFFCE5"/>
<path fill-rule="evenodd" clip-rule="evenodd" d="M19 10.3544V14L23 11.6456V8L19 10.3544Z" fill="#FFFEF2"/>
<path fill-rule="evenodd" clip-rule="evenodd" d="M19 34L23 31.2966V8L19 10.4648V34Z" stroke="#7259C0" stroke-linecap="round" stroke-linejoin="round"/>
<path fill-rule="evenodd" clip-rule="evenodd" d="M5.54331 3L2 5.6383L18.4567 11L22 8.3617L5.54331 3Z" fill="#FFFEF2" stroke="#7259C0" stroke-linecap="round" stroke-linejoin="round"/>
<path fill-rule="evenodd" clip-rule="evenodd" d="M18.8075 34.965L1.71548 29.8042C1.31799 29.6454 1 29.3278 1 28.9308V4L18.6485 9.31963C19.4435 9.55782 20 10.2724 20 11.1458V34.0916C20 34.7268 19.364 35.1238 18.8075 34.965Z" fill="#00B8F0"/>
<path fill-rule="evenodd" clip-rule="evenodd" d="M18.6485 9.36L1 4V6.8L18.6485 12.16C19.4435 12.4 20 13.12 20 14V11.2C20 10.32 19.4435 9.6 18.6485 9.36Z" fill="#3CCFFC"/>
<path fill-rule="evenodd" clip-rule="evenodd" d="M18.8075 34.965L1.71548 29.8042C1.31799 29.6454 1 29.3278 1 28.9308V4L18.6485 9.31963C19.4435 9.55782 20 10.2724 20 11.1458V34.0916C20 34.7268 19.364 35.1238 18.8075 34.965Z" stroke="#7259C0" stroke-linecap="round" stroke-linejoin="round"/>
<path fill-rule="evenodd" clip-rule="evenodd" d="M5 5.20178L1 4V29.1573C1 29.5579 1.2449 29.9585 1.73469 30.0386L5 31V5.20178Z" fill="#656769"/>
<path fill-rule="evenodd" clip-rule="evenodd" d="M1 4V6.8L5 8V5.2L1 4Z" fill="#87898C"/>
<path fill-rule="evenodd" clip-rule="evenodd" d="M5 5.20178L1 4V29.1573C1 29.5579 1.2449 29.9585 1.73469 30.0386L5 31V5.20178V5.20178Z" stroke="#7259C0" stroke-linecap="round" stroke-linejoin="round"/>
<path fill-rule="evenodd" clip-rule="evenodd" d="M15 18L9 16.0286V12L15 13.8857V18Z" fill="#F8E587" stroke="#7259C0" stroke-linecap="round" stroke-linejoin="round"/>
</svg>
